<svg xmlns="http://www.w3.org/2000/svg" viewBox="0 0 400 280" font-family="Inter,Arial,sans-serif">
  <rect width="400" height="280" fill="#0d1117"/>
  <rect x="0" y="230" width="400" height="50" fill="#1a2030"/>
  <!-- Road + sky -->
  <rect x="0" y="0" width="400" height="140" fill="#1a2535"/>
  <rect x="0" y="140" width="400" height="90" fill="#252d40"/>
  <!-- Road markings -->
  <rect x="185" y="145" width="30" height="8" fill="#4a5568" rx="1"/>
  <rect x="185" y="165" width="30" height="8" fill="#4a5568" rx="1"/>
  <rect x="185" y="185" width="30" height="8" fill="#4a5568" rx="1"/>
  <!-- Car 1 -->
  <rect x="60" y="155" width="110" height="65" rx="5" fill="#1e3a5f"/>
  <rect x="75" y="140" width="80" height="35" rx="4" fill="#1e3a5f"/>
  <rect x="58" y="153" width="114" height="69" rx="4" fill="none" stroke="#22c55e" stroke-width="2.5"/>
  <rect x="58" y="138" width="66" height="18" rx="3" fill="#22c55e"/>
  <text x="91" y="151" fill="white" font-size="11" font-weight="700" text-anchor="middle">Car 98%</text>
  <!-- Car 2 -->
  <rect x="240" y="160" width="90" height="58" rx="4" fill="#374151"/>
  <rect x="238" y="158" width="94" height="62" rx="3" fill="none" stroke="#22c55e" stroke-width="2.5"/>
  <rect x="238" y="144" width="66" height="18" rx="3" fill="#22c55e"/>
  <text x="271" y="157" fill="white" font-size="11" font-weight="700" text-anchor="middle">Car 96%</text>
  <!-- Pedestrian -->
  <ellipse cx="355" cy="195" rx="12" ry="25" fill="#f59e0b" opacity="0.85"/>
  <rect x="342" y="194" width="26" height="38" rx="3" fill="#f59e0b" opacity="0.8"/>
  <rect x="340" y="183" width="30" height="51" rx="2" fill="none" stroke="#fbbf24" stroke-width="2"/>
  <rect x="340" y="170" width="50" height="16" rx="2" fill="#fbbf24"/>
  <text x="365" y="182" fill="white" font-size="10" font-weight="700" text-anchor="middle">Ped 93%</text>
  <!-- Stats -->
  <text x="200" y="253" fill="#22c55e" font-size="13" font-weight="700" text-anchor="middle">3 objects · 68 FPS · 12ms</text>
  <text x="200" y="270" fill="#94a3b8" font-size="10" text-anchor="middle">nuScenes — daytime scene</text>
</svg>
