<svg xmlns="http://www.w3.org/2000/svg" viewBox="0 0 400 280" font-family="Inter,Arial,sans-serif">
  <rect width="400" height="280" fill="#05080f"/>
  <rect x="0" y="230" width="400" height="50" fill="#1a2030"/>
  <!-- Night sky -->
  <circle cx="50" cy="30" r="2" fill="white" opacity="0.6"/>
  <circle cx="120" cy="15" r="1.5" fill="white" opacity="0.4"/>
  <circle cx="200" cy="25" r="1" fill="white" opacity="0.5"/>
  <circle cx="300" cy="10" r="2" fill="white" opacity="0.3"/>
  <circle cx="360" cy="35" r="1.5" fill="white" opacity="0.6"/>
  <!-- Road -->
  <rect x="0" y="160" width="400" height="70" fill="#111827"/>
  <!-- Headlight glows -->
  <radialGradient id="gl1" cx="50%" cy="50%" r="50%">
    <stop offset="0%" stop-color="#fef9c3" stop-opacity="0.7"/>
    <stop offset="100%" stop-color="#fef9c3" stop-opacity="0"/>
  </radialGradient>
  <ellipse cx="110" cy="185" rx="50" ry="20" fill="url(#gl1)"/>
  <ellipse cx="290" cy="180" rx="40" ry="16" fill="url(#gl1)"/>
  <!-- Car 1 (night) -->
  <rect x="55" y="155" width="115" height="60" rx="5" fill="#111c33"/>
  <!-- headlights -->
  <rect x="57" y="190" width="18" height="10" rx="2" fill="#fef08a" opacity="0.9"/>
  <rect x="148" y="190" width="18" height="10" rx="2" fill="#fef08a" opacity="0.9"/>
  <rect x="53" y="153" width="119" height="64" rx="3" fill="none" stroke="#60a5fa" stroke-width="2.5"/>
  <rect x="53" y="139" width="66" height="17" rx="3" fill="#60a5fa"/>
  <text x="86" y="151" fill="white" font-size="11" font-weight="700" text-anchor="middle">Car 95%</text>
  <!-- Car 2 -->
  <rect x="260" y="158" width="95" height="56" rx="4" fill="#111c33"/>
  <rect x="262" y="188" width="16" height="9" rx="2" fill="#fef08a" opacity="0.85"/>
  <rect x="337" y="188" width="16" height="9" rx="2" fill="#fef08a" opacity="0.85"/>
  <rect x="258" y="156" width="99" height="60" rx="3" fill="none" stroke="#60a5fa" stroke-width="2.5"/>
  <rect x="258" y="142" width="66" height="17" rx="3" fill="#60a5fa"/>
  <text x="291" y="154" fill="white" font-size="11" font-weight="700" text-anchor="middle">Car 91%</text>
  <!-- Stats -->
  <text x="200" y="253" fill="#60a5fa" font-size="13" font-weight="700" text-anchor="middle">2 objects · 65 FPS · 15ms</text>
  <text x="200" y="270" fill="#94a3b8" font-size="10" text-anchor="middle">nuScenes — night scene</text>
</svg>
